# xmcd
#
# Track frame offsets:
#	150
#	20917
#	41401
#	60113
#	75884
#	96091
#	117836
#	132341
#	153275
#	174015
#	190488
#	208926
#
# Disc length: 3011 seconds
#
# Revision: 0
# Processed by: cddbd v1.5.2PL0 Copyright (c) Steve Scherf et al.
# Submitted via: EasyCDDAExtractor 11.9.9.666
#
DISCID=900bc10c
DTITLE=Andrea Fontes - Eu Acredito Em Milagres
DYEAR=2010
DGENRE=Gospel
TTITLE0=Você Vai Vencer
TTITLE1=Podem Vir
TTITLE2=É Só Crer
TTITLE3=Deus Me Trouxe Aqui
TTITLE4=Não Há Limites
TTITLE5=O Extraordinário Impossível
TTITLE6=Vai Queimando
TTITLE7=Soldado Fiel
TTITLE8=Você Acredita em Milagres
TTITLE9=História Real
TTITLE10=Filha de Jairo
TTITLE11=Jesus Está Voltando
EXTD=
EXTT0=
EXTT1=
EXTT2=
EXTT3=
EXTT4=
EXTT5=
EXTT6=
EXTT7=
EXTT8=
EXTT9=
EXTT10=
EXTT11=
PLAYORDER=
